:SAMPLES-PER-SECOND 30
:FRAME-RANGE 1-668
:FULLY-SPECIFIED
:DEGREES
251
root  -1.86548 39.8885 30.0858 -169.923 2.79469 -177.988
RightUpLeg  -20.0089 3.52621 -8.03076
RightLeg  12.6546 2.31239 0.0719953
RightFoot  -0.15684 -1.07503 10.9372
RightToes  5.38607e-012 1.2921e-014 -6.02303e-014
Spine  -2.87931 -2.1872 -2.49659
Spine1  13.1557 -0.743072 -4.22493
HEad  -19.872 -26.0634 13.6247
LeftShoulder1  3.27811 -7.37669 -24.7673
LeftArm  -3.61676 -9.94275 -46.738
LeftForeArm  36.2993 3.88472 -12.022
LeftHand  -0.0427641 4.69124 3.40767
RightShoulder  3.24934 6.46459 27.363
RightArm  -17.7905 27.3874 58.7469
RightForeArm  74.6648 -5.35871 4.96631
RightHand  0.0140931 -5.9727 -7.70346
LeftUpLeg  -17.9112 1.69491 -0.712096
LeftLeg  10.3149 8.60897 2.54175
LeftFoot  -2.46845 -0.0403766 0.71251
LeftToes  -6.11857e-011 5.00151e-011 -2.22593e-011
252
root  -1.93208 39.887 30.1936 -169.942 3.40497 -177.883
RightUpLeg  -18.9932 2.23467 -7.3314
RightLeg  11.6847 3.06726 0.0578979
RightFoot  -2.15826 -0.845711 10.3203
RightToes  5.38607e-012 1.2921e-014 -6.02303e-014
Spine  -3.0203 -2.2319 -2.71272
Spine1  13.3495 -0.833549 -4.07419
HEad  -19.8014 -25.9414 13.7105
LeftShoulder1  3.31362 -7.58902 -24.4815
LeftArm  -4.4185 -9.25502 -46.639
LeftForeArm  36.1015 4.33736 -11.7348
LeftHand  -0.0419987 4.69808 3.28772
RightShoulder  3.23739 6.33546 27.6949
RightArm  -17.5108 26.9744 59.2747
RightForeArm  75.1039 -5.36338 5.10452
RightHand  -0.0108299 -5.60545 -6.96818
LeftUpLeg  -18.0592 1.82207 -0.658033
LeftLeg  10.4357 9.12939 2.58464
LeftFoot  -2.34765 -0.0569281 0.95422
LeftToes  -6.11857e-011 5.00151e-011 -2.22593e-011
253
root  -1.96862 39.8672 30.3004 -170.225 4.14467 -177.842
RightUpLeg  -17.8533 1.72041 -6.83623
RightLeg  11.8925 3.04736 0.171589
RightFoot  -4.70848 -0.614822 10.0306
RightToes  5.38607e-012 1.2921e-014 -6.02303e-014
Spine  -3.04487 -2.10624 -2.70696
Spine1  13.6963 -0.678659 -4.22377
HEad  -19.7337 -25.8144 13.8168
LeftShoulder1  3.26393 -7.43715 -24.4474
LeftArm  -4.1448 -9.56228 -46.2234
LeftForeArm  35.447 5.23113 -11.8825
LeftHand  -0.0452149 4.65295 2.88098
RightShoulder  3.28986 6.45507 27.8266
RightArm  -17.1222 26.4839 59.2809
RightForeArm  74.5763 -5.44187 5.45092
RightHand  -0.0236673 -5.37979 -6.64709
LeftUpLeg  -18.1083 1.9394 -0.632864
LeftLeg  10.956 9.71866 2.75744
LeftFoot  -2.49085 -0.0496905 0.864987
LeftToes  -6.11857e-011 5.00151e-011 -2.22593e-011
254
root  -1.9859 39.8533 30.3921 -170.449 5.20128 -177.833
RightUpLeg  -16.9783 1.64826 -6.45775
RightLeg  12.9992 2.48007 0.30177
RightFoot  -6.02361 -0.51168 10.108
RightToes  5.38607e-012 1.2921e-014 -6.02303e-014
Spine  -3.28807 -1.86339 -2.61082
Spine1  13.9896 -0.376465 -4.46044
HEad  -19.1268 -25.4731 13.417
LeftShoulder1  3.21562 -7.33331 -24.2818
LeftArm  -4.13616 -9.39382 -46.0124
LeftForeArm  35.4021 5.8505 -11.9192
LeftHand  -0.0449469 4.81787 3.0753
RightShoulder  3.32013 6.56225 27.7662
RightArm  -17.3979 25.8782 59.4579
RightForeArm  74.8296 -5.41575 5.35497
RightHand  -0.0260049 -5.33644 -6.54807
LeftUpLeg  -18.0794 2.06834 -0.611468
LeftLeg  11.3311 10.6211 3.01925
LeftFoot  -2.53967 -0.0477389 0.879024
LeftToes  -6.11857e-011 5.00151e-011 -2.22593e-011
255
root  -1.97967 39.8273 30.4552 -170.643 6.39107 -177.884
RightUpLeg  -16.1947 1.26642 -6.10951
RightLeg  14.7355 1.80229 0.339805
RightFoot  -7.47105 -0.378626 9.67639
RightToes  5.38607e-012 1.2921e-014 -6.02303e-014
Spine  -3.73242 -1.69265 -2.49745
Spine1  14.2535 -0.101503 -4.87568
HEad  -18.1843 -24.8863 12.76
LeftShoulder1  3.15045 -7.17836 -24.0978
LeftArm  -4.07479 -8.58832 -45.6819
LeftForeArm  35.7246 5.75962 -11.9561
LeftHand  -0.0461131 4.96664 3.16606
RightShoulder  3.32181 6.54663 27.8389
RightArm  -18.1526 25.3417 59.6981
RightForeArm  76.4158 -5.27469 4.89581
RightHand  -0.0241227 -5.37589 -6.34609
LeftUpLeg  -18.0137 2.30641 -0.587554
LeftLeg  11.7089 11.5337 3.21911
LeftFoot  -2.75004 -0.0343015 0.71796
LeftToes  -6.11857e-011 5.00151e-011 -2.22593e-011
256
root  -1.9644 39.8065 30.4994 -170.79 7.55161 -178.034
RightUpLeg  -15.413 0.686758 -5.82715
RightLeg  16.5267 0.0754331 -0.17542
RightFoot  -8.41285 -0.305951 9.70389
RightToes  5.38607e-012 1.2921e-014 -6.02303e-014
Spine  -4.19935 -1.60899 -2.52308
Spine1  14.3966 0.0209028 -5.11126
HEad  -17.4416 -24.2015 12.2099
LeftShoulder1  3.06883 -6.81646 -24.3796
LeftArm  -3.42015 -7.74221 -44.8029
LeftForeArm  35.6696 5.33783 -12.2082
LeftHand  -0.0443172 5.03772 3.42048
RightShoulder  3.32872 6.60429 27.7086
RightArm  -18.5749 24.8791 59.5752
RightForeArm  77.5519 -5.19523 4.70246
RightHand  -0.0155343 -5.55971 -6.08556
LeftUpLeg  -17.8952 2.38206 -0.673623
LeftLeg  11.9191 12.4979 3.49835
LeftFoot  -2.9058 -0.00975241 0.369931
LeftToes  -6.11857e-011 5.00151e-011 -2.22593e-011
257
root  -1.9443 39.7971 30.5439 -170.904 8.4045 -178.266
RightUpLeg  -14.6476 -0.179976 -5.74314
RightLeg  18.1281 -1.68711 -0.820202
RightFoot  -9.12384 -0.238795 9.10893
RightToes  5.38607e-012 1.2921e-014 -6.02303e-014
Spine  -4.47809 -1.70002 -2.59841
Spine1  14.3099 -0.0947163 -5.19281
HEad  -17.1446 -23.4954 11.9594
LeftShoulder1  3.03653 -6.74793 -24.2591
LeftArm  -3.27094 -6.20478 -44.266
LeftForeArm  35.9166 4.54025 -12.2617
LeftHand  -0.0438034 4.93208 3.36527
RightShoulder  3.28912 6.49902 27.6628
RightArm  -19.2724 24.192 59.3913
RightForeArm  78.8273 -5.08151 4.34077
RightHand  -0.00357504 -5.82892 -5.89003
LeftUpLeg  -17.7919 2.50763 -0.780485
LeftLeg  11.9882 13.1339 3.50192
LeftFoot  -3.01093 -0.00926442 0.376602
LeftToes  -6.11857e-011 5.00151e-011 -2.22593e-011
258
root  -1.9058 39.7825 30.6002 -170.971 9.24263 -178.523
RightUpLeg  -13.8979 -0.91628 -5.89322
RightLeg  19.0823 -2.94982 -1.33904
RightFoot  -9.79569 -0.187559 8.94247
RightToes  5.38607e-012 1.2921e-014 -6.02303e-014
Spine  -4.64711 -1.76035 -2.64708
Spine1  14.2377 -0.169451 -5.27604
HEad  -17.3768 -22.9654 11.9819
LeftShoulder1  3.0097 -6.58307 -24.5031
LeftArm  -2.65076 -5.28582 -43.4384
LeftForeArm  35.7885 4.01527 -12.4878
LeftHand  -0.0405059 4.93649 3.5911
RightShoulder  3.2421 6.38352 27.5733
RightArm  -19.7966 23.1593 58.8852
RightForeArm  79.3424 -5.03431 4.18825
RightHand  -0.000558657 -5.89497 -5.88339
LeftUpLeg  -17.7845 2.60483 -0.871173
LeftLeg  12.1188 13.6948 3.53034
LeftFoot  -3.05421 0.00992195 0.101983
LeftToes  -6.11857e-011 5.00151e-011 -2.22593e-011
259
root  -1.83999 39.76 30.6797 -170.952 10.3216 -178.815
RightUpLeg  -13.482 -1.3481 -6.27568
RightLeg  19.7442 -3.26279 -1.50356
RightFoot  -10.6268 -0.127384 8.81279
RightToes  5.38607e-012 1.2921e-014 -6.02303e-014
Spine  -4.78051 -1.67608 -2.67188
Spine1  14.2242 -0.0546041 -5.41593
HEad  -17.9876 -22.7341 12.352
LeftShoulder1  2.98011 -6.47184 -24.5487
LeftArm  -2.26869 -4.71099 -42.9927
LeftForeArm  35.9675 3.90451 -12.6353
LeftHand  -0.0442885 4.69318 2.91176
RightShoulder  3.18798 6.23625 27.5192
RightArm  -19.9535 21.9861 58.154
RightForeArm  79.0139 -5.07186 4.33049
RightHand  0.00487816 -5.96758 -6.22924
LeftUpLeg  -17.8924 2.69701 -0.964726
LeftLeg  12.2423 14.5866 3.65027
LeftFoot  -3.06432 0.0244289 -0.0968818
LeftToes  -6.11857e-011 5.00151e-011 -2.22593e-011
260
root  -1.7562 39.751 30.7747 -170.865 11.4832 -178.961
RightUpLeg  -13.2271 -1.88957 -6.60196
RightLeg  19.8973 -3.11776 -1.45586
RightFoot  -10.9172 -0.106447 8.67119
RightToes  5.38607e-012 1.2921e-014 -6.02303e-014
Spine  -4.74646 -1.60883 -2.56676
Spine1  14.0812 0.00603526 -5.44836
HEad  -18.4856 -22.4374 12.5799
LeftShoulder1  2.92854 -6.25738 -24.6999
LeftArm  -1.91311 -4.40183 -42.5979
LeftForeArm  36.0941 4.1587 -12.7952
LeftHand  -0.0356914 5.00955 3.71211
RightShoulder  3.16163 6.20562 27.3431
RightArm  -20.0594 20.7544 57.4569
RightForeArm  78.4665 -5.1243 4.50696
RightHand  0.0129962 -6.05669 -6.77688
LeftUpLeg  -18.0118 2.86098 -0.885008
LeftLeg  12.2633 15.5529 3.78446
LeftFoot  -3.00971 0.0411974 -0.322683
LeftToes  -6.11857e-011 5.00151e-011 -2.22593e-011
261
root  -1.65276 39.7407 30.8753 -170.685 12.6336 -179.104
RightUpLeg  -13.1701 -2.64609 -7.04387
RightLeg  19.574 -2.74769 -1.28916
RightFoot  -11.045 -0.0985912 9.03655
RightToes  5.38607e-012 1.2921e-014 -6.02303e-014
Spine  -4.71961 -1.6275 -2.46136
Spine1  13.8661 -0.0160603 -5.47842
HEad  -18.7499 -22.1392 12.5352
LeftShoulder1  2.90362 -6.13526 -24.8383
LeftArm  -1.73296 -4.05058 -42.2778
LeftForeArm  35.9141 4.48884 -12.8896
LeftHand  -0.0314455 5.16621 3.7051
RightShoulder  3.12423 6.0991 27.32
RightArm  -20.7926 19.6366 56.7359
RightForeArm  78.1561 -5.09472 4.24824
RightHand  -0.0236146 -5.38216 -6.56574
LeftUpLeg  -18.2859 2.95824 -0.797857
LeftLeg  12.3874 16.5291 4.03744
LeftFoot  -2.90182 0.0648434 -0.641979
LeftToes  -6.11857e-011 5.00151e-011 -2.22593e-011
262
root  -1.5244 39.7376 30.9834 -170.457 13.9336 -179.186
RightUpLeg  -13.347 -3.11378 -7.52914
RightLeg  18.9681 -2.67376 -1.22655
RightFoot  -11.0616 -0.0977476 9.18098
RightToes  5.38607e-012 1.2921e-014 -6.02303e-014
Spine  -4.6586 -1.6446 -2.3047
Spine1  13.5884 -0.0317212 -5.50722
HEad  -18.577 -21.815 12.2322
LeftShoulder1  2.87965 -6.04888 -24.8674
LeftArm  -1.735 -3.68751 -42.2165
LeftForeArm  36.2135 4.99352 -12.908
LeftHand  -0.0281819 5.28811 3.54773
RightShoulder  3.09939 6.01648 27.348
RightArm  -21.9572 18.4221 56.1758
RightForeArm  78.1007 -5.00476 3.69142
RightHand  -0.0103846 -5.60599 -7.11378
LeftUpLeg  -18.5489 3.10617 -0.603914
LeftLeg  12.4616 17.5338 4.2974
LeftFoot  -2.76319 0.101451 -1.13099
LeftToes  -6.11857e-011 5.00151e-011 -2.22593e-011
263
root  -1.36771 39.7318 31.0808 -170.234 15.4305 -179.3
RightUpLeg  -13.6561 -3.34906 -8.19615
RightLeg  18.026 -2.73593 -1.19779
RightFoot  -10.8604 -0.113202 9.33614
RightToes  5.38607e-012 1.2921e-014 -6.02303e-014
Spine  -4.71451 -1.60588 -2.17658
Spine1  13.4456 0.0106675 -5.4795
HEad  -18.354 -21.4529 11.8956
LeftShoulder1  2.85039 -5.91833 -24.9912
LeftArm  -1.71492 -3.47886 -42.1622
LeftForeArm  36.3286 5.46541 -12.9316
LeftHand  -0.0273944 5.32305 3.3251
RightShoulder  3.07687 5.91094 27.4884
RightArm  -22.9281 17.3199 55.5916
RightForeArm  77.4583 -4.96051 3.26275
RightHand  0.0195467 -6.00017 -8.29531
LeftUpLeg  -18.7423 3.26808 -0.407392
LeftLeg  12.5182 18.8015 4.63522
LeftFoot  -2.55764 0.12401 -1.41437
LeftToes  -6.11857e-011 5.00151e-011 -2.22593e-011
264
root  -1.18082 39.7407 31.1727 -170.128 17.0797 -179.464
RightUpLeg  -14.0089 -3.43275 -8.99875
RightLeg  16.8466 -2.95668 -1.20834
RightFoot  -10.1358 -0.163678 8.98132
RightToes  5.38607e-012 1.2921e-014 -6.02303e-014
Spine  -4.69769 -1.50086 -2.03321
Spine1  13.304 0.118401 -5.42514
HEad  -18.0458 -21.1523 11.4835
LeftShoulder1  2.82258 -5.80116 -25.0875
LeftArm  -1.57748 -3.29488 -42.2415
LeftForeArm  36.293 5.78011 -13.0018
LeftHand  -0.0259954 5.38475 3.26516
RightShoulder  3.05248 5.7791 27.7106
RightArm  -24.1572 16.2166 55.0517
RightForeArm  76.1755 -4.9188 2.69212
RightHand  0.0225668 -5.94172 -9.49107
LeftUpLeg  -18.6372 3.41406 -0.204374
LeftLeg  12.3022 20.2236 4.93626
LeftFoot  -2.29377 0.169147 -1.96369
LeftToes  -6.11857e-011 5.00151e-011 -2.22593e-011
